<svg fill="#000000" xmlns="http://www.w3.org/2000/svg"  viewBox="0 0 48 48" width="50px" height="50px"><path fill="none" stroke="#000000" stroke-linecap="round" stroke-linejoin="round" stroke-miterlimit="10" stroke-width="3" d="M20.5,32.5h7c1.657,0,3-1.343,3-3v0c0-1.657-1.343-3-3-3h-4.393c-5.795,0-5.939-1-9.28-1C7.376,25.5,3.5,34.006,3.5,34.006"/><path fill="none" stroke="#000000" stroke-linecap="round" stroke-linejoin="round" stroke-miterlimit="10" stroke-width="3" d="M10.5,43.5c0,0,1-4,5-4c4.053,0,8.091,1,12,1c2.827,0,5.256-2.762,16.174-11.934l-0.053,0.055c1.172-1.172,1.172-3.071,0-4.243	c-1.172-1.172-2.734-1.121-4.243,0C37.87,25.5,29.327,31.88,29.327,31.88"/><path d="M33,2c-3.866,0-7,3.134-7,7c0,0.493,0.052,0.973,0.149,1.437l-4.856,4.856C21.105,15.48,21,15.735,21,16v4	c0,0.552,0.447,1,1,1h4c0.553,0,1-0.448,1-1v-2h2c0.553,0,1-0.448,1-1v-1.683C30.91,15.75,31.925,16,33,16c3.866,0,7-3.134,7-7	C40,5.134,36.866,2,33,2z M34,10c-1.105,0-2-0.895-2-2c0-1.105,0.895-2,2-2c1.105,0,2,0.895,2,2C36,9.105,35.105,10,34,10z"/></svg>