<svg fill="#000000" xmlns="http://www.w3.org/2000/svg"  viewBox="0 0 48 48" width="50px" height="50px"><path fill="none" stroke="#000000" stroke-linecap="round" stroke-linejoin="round" stroke-miterlimit="10" stroke-width="3" d="M8.5,41.5v-31c0-2.209,1.791-4,4-4h11c2.209,0,4,1.791,4,4v31"/><path fill="none" stroke="#000000" stroke-linecap="round" stroke-linejoin="round" stroke-miterlimit="10" stroke-width="3" d="M27.5,16.5c0,2.209-1.791,4-4,4h-11c-2.209,0-4-1.791-4-4"/><line x1="7.5" x2="28.5" y1="41.5" y2="41.5" fill="none" stroke="#000000" stroke-linecap="round" stroke-linejoin="round" stroke-miterlimit="10" stroke-width="3"/><path fill="none" stroke="#000000" stroke-linecap="round" stroke-linejoin="round" stroke-miterlimit="10" stroke-width="3" d="M28.5,29.5h5c1.105,0,2,0.895,2,2V35c0,1.933,1.567,3.5,3.5,3.5h0c1.933,0,3.5-1.567,3.5-3.5V21.967c0-0.926-0.427-1.8-1.158-2.368	L33.5,13.5"/><path d="M44,22c0-2.209-1.791-4-4-4c-0.347,0-0.679,0.058-1,0.141V17h-3v5c0,2.209,1.791,4,4,4h3v-1.38	C43.615,23.917,44,23.008,44,22z"/></svg>